<?xml version="1.0" encoding="UTF-8" standalone="no"?>
<svg
   xmlns:dc="http://purl.org/dc/elements/1.1/"
   xmlns:cc="http://creativecommons.org/ns#"
   xmlns:rdf="http://www.w3.org/1999/02/22-rdf-syntax-ns#"
   xmlns:svg="http://www.w3.org/2000/svg"
   xmlns="http://www.w3.org/2000/svg"
   xmlns:sodipodi="http://sodipodi.sourceforge.net/DTD/sodipodi-0.dtd"
   xmlns:inkscape="http://www.inkscape.org/namespaces/inkscape"
   version="1.1"
   x="0px"
   y="0px"
   viewBox="0 0 100 103.66911"
   enable-background="new 0 0 25 25"
   xml:space="preserve"
   id="svg916"
   sodipodi:docname="ext_icon.svg"
   width="100"
   height="103.66911"><metadata
     id="metadata922"><rdf:RDF><cc:Work
         rdf:about=""><dc:format>image/svg+xml</dc:format><dc:type
           rdf:resource="http://purl.org/dc/dcmitype/StillImage" /><dc:title></dc:title></cc:Work></rdf:RDF></metadata><defs
     id="defs920" />

 /><path
     d="M 63.54053,53.197693 H 53.170034 c -0.08127,-2.298033 -1.453765,-4.135557 -3.173904,-4.135557 -1.715624,0 -3.092638,1.837524 -3.169391,4.135557 h -10.37501 c -3.73374,0 -6.772201,3.038461 -6.772201,6.772201 v 27.088802 c 0,3.449307 4.5148,6.271057 4.5148,6.681904 v 3.015885 c 0,0.95262 2.537318,1.72917 4.5148,1.72917 1.977483,0 4.514801,-0.77655 4.514801,-1.72917 V 93.830896 H 56.76833 v 2.925589 c 0,0.95262 2.541832,1.72917 4.514801,1.72917 1.972967,0 4.5148,-0.77655 4.5148,-1.72917 V 93.73157 c 0,-0.460509 4.514801,-3.268715 4.514801,-6.677389 V 59.965378 c 0,-3.729224 -3.038462,-6.767685 -6.772202,-6.767685 z M 40.686611,87.62756 c -1.720138,0 -3.106182,-1.390559 -3.106182,-3.106182 0,-1.715625 1.386044,-3.106183 3.106182,-3.106183 1.720139,0 3.106183,1.386044 3.106183,3.106183 0,1.720139 -1.386044,3.106182 -3.106183,3.106182 z M 47.73873,75.771695 H 34.194328 V 59.969894 c 0,-1.241571 1.01583,-2.257401 2.257401,-2.257401 H 47.73873 Z M 59.549447,87.62756 c -1.724653,-0.0045 -3.106182,-1.399588 -3.106182,-3.106182 0,-1.706595 1.395072,-3.106183 3.106182,-3.106183 1.720139,0 3.106183,1.395074 3.106183,3.106183 0.0045,1.715623 -1.390558,3.106182 -3.106183,3.106182 z M 65.797931,75.771695 H 52.25353 V 57.712493 h 11.287 c 1.241571,0 2.257401,1.01583 2.257401,2.257401 z M 92.791922,37.495217 55.210724,6.9255041 c -2.884957,-2.3657555 -7.453935,-2.3115773 -10.4021,0.09933 L 7.1958228,37.445555 c -1.8691272,1.535031 -2.5508628,3.061034 -2.0226303,4.541889 0.5192019,1.444736 1.9278189,2.180647 4.1897339,2.180647 h 2.2574006 v 47.585997 c 0,3.638937 2.957194,6.591617 6.591608,6.591617 h 2.437993 4.5148 V 46.425493 c 0,-1.241571 1.01583,-2.257402 2.2574,-2.257402 h 45.148003 c 1.24157,0 2.2574,1.015831 2.2574,2.257402 v 47.405403 4.514809 h 4.5148 2.437993 c 3.638929,0 6.591609,-2.95268 6.591609,-6.591617 V 44.168091 h 2.2574 c 2.270949,0 3.675048,-0.726881 4.198766,-2.162588 0.785573,-2.198708 -1.336383,-3.936906 -2.036177,-4.510286 z M 49.540135,36.556138 c -4.632185,0 -8.402043,-3.869183 -8.402043,-8.632298 0,-1.607269 1.33638,-4.785688 1.395073,-4.925646 0.09481,-0.293463 0.424391,-0.446967 0.708823,-0.352155 0.22574,0.08578 0.361185,0.284433 0.370214,0.505657 0.0632,0.162533 -0.126414,0.645617 -0.176077,0.713339 -0.528231,1.810435 -0.46051,3.634415 0.225739,4.559949 0.347641,0.478568 0.848784,0.704308 1.516974,0.672704 0.862327,-0.02709 1.002286,-1.331865 1.002286,-4.460622 0,-0.853297 -0.325066,-1.688536 -0.641103,-2.49217 -0.334094,-0.830723 -0.645615,-1.620814 -0.523716,-2.37027 0.230254,-1.426677 2.95268,-4.08138 3.498971,-4.605096 0.176077,-0.180592 0.455994,-0.207681 0.677219,-0.07675 0.221226,0.135446 0.316036,0.401818 0.243799,0.650132 -0.194136,0.708824 -1.060978,7.092751 0.239285,9.092808 0.189622,0.297977 0.410846,0.465024 0.66819,0.496627 0.92102,0.135446 2.298034,-1.760771 2.726939,-4.523828 0,-0.08578 0.009,-0.568866 0.01806,-1.038405 0.009,-0.528232 0.02709,-1.056463 0.03612,-1.1287 0.02709,-0.230255 0.185107,-0.410848 0.410847,-0.469539 0.221225,-0.05418 0.455995,0.02709 0.59144,0.203166 0.614012,0.794605 2.568921,3.494455 2.298033,4.839866 -0.112871,0.577895 -0.519203,1.047433 -0.948109,1.539547 -0.374728,0.437936 -0.767516,0.89393 -0.988741,1.453766 -0.650132,1.684021 -0.663675,3.070063 -0.392788,3.688591 0.05418,0.108356 0.139959,0.257344 0.257344,0.302492 0.469539,0.176076 1.59824,-0.731397 2.428963,-2.600525 0.0045,-0.02257 0.234769,-0.763002 0.54629,-0.79009 0.293463,-0.02257 0.57338,0.21671 0.600468,0.523716 0.01355,0.194138 0.02257,0.392788 0.02257,0.591439 0,4.763115 -3.774373,8.632298 -8.411073,8.632298 z"
     id="path914"
        style="fill:#d40000;fill-opacity:1;"
    /></svg>
